{"title":"Avengers Age of Ultron(2015)Mp-4[DaScubaDude]","uid":13086258,"size":1427592816,"categoryP":"video","categoryS":"movies","magnet":"?xt=urn:btih:fc66467d639e659235e7413a94fa256231deac3a&amp;dn=Avengers+Age+of+Ultron%282015%29Mp-4%5BDaScubaDude%5D&amp;tr=udp%3A%2F%2Ftracker.leechers-paradise.org%3A6969&amp;tr=udp%3A%2F%2Fzer0day.ch%3A1337&amp;tr=udp%3A%2F%2Fopen.demonii.com%3A1337&amp;tr=udp%3A%2F%2Ftracker.coppersurfer.tk%3A6969&amp;tr=udp%3A%2F%2Fexodus.desync.com%3A6969","seeders":0,"leechers":0,"uploader":"dascuba","files":1,"time":1450975115,"description":"Avengers: Age of Ultron (2015)\r\nPG-13  |  141 min  |  Action, Adventure, Sci-Fi  |  1 May 2015 (USA)\r\n7.6 Your rating:   -/10   Ratings: 7.6/10 from 358,509 users   Metascore: 66/100\r\nReviews: 1,061 user | 605 critic | 49 from Metacritic.com\r\nWhen Tony Stark and Bruce Banner try to jump-start a dormant peacekeeping program called Ultron, things go horribly wrong and it's up to Earth's Mightiest Heroes to stop the villainous Ultron from enacting his terrible plans.\r\n\r\nDirector: Joss Whedon\r\nWriters: Joss Whedon, Stan Lee (based on the Marvel comics by), 1 more credit »\r\nStars: Robert Downey Jr., Chris Evans, Mark Ruffalo \r\n\r\nGeneral\r\nComplete name                            :Avengers Age of UltronAVENGERS_AGE_OF_ULTRON_Title1.mp4\r\nFormat                                   : MPEG-4\r\nFormat profile                           : Base Media\r\nCodec ID                                 : isom\r\nFile size                                : 1.33 GiB\r\nDuration                                 : 2h 21mn\r\nOverall bit rate                         : 1 348 Kbps\r\nMovie name                               : AVENGERS_AGE_OF_ULTRON\r\nGenre                                    : Action\r\nWriting application                      : Lavf54.6.100\r\n\r\nVideo\r\nID                                       : 1\r\nFormat                                   : AVC\r\nFormat/Info                              : Advanced Video Codec\r\nFormat profile                           :   \r\nFormat settings, CABAC                   : No\r\nFormat settings, ReFrames                : 6 frames\r\nCodec ID                                 : avc1\r\nCodec ID/Info                            : Advanced Video Coding\r\nDuration                                 : 2h 21mn\r\nBit rate                                 : 1 213 Kbps\r\nWidth                                    : 720 pixels\r\nHeight                                   : 404 pixels\r\nDisplay aspect ratio                     : 16:9\r\nFrame rate mode                          : Constant\r\nFrame rate                               : 29.970 fps\r\nColor space                              : YUV\r\nChroma subsampling                       : 4:2:0\r\nBit depth                                : 8 bits\r\nScan type                                : Progressive\r\nBits/(Pixel*Frame)                       : 0.139\r\nStream size                              : 1.20 GiB (90%)\r\n\r\nAudio\r\nID                                       : 2\r\nFormat                                   : AAC\r\nFormat/Info                              : Advanced Audio Codec\r\nFormat profile                           : LC\r\nCodec ID                                 : 40\r\nDuration                                 : 2h 21mn\r\nBit rate mode                            : Constant\r\nBit rate                                 : 128 Kbps\r\nChannel(s)                               : 2 channels\r\nChannel positions                        : Front: L R\r\nSampling rate                            : 44.1 KHz\r\nCompression mode                         : Lossy\r\nStream size                              : 129 MiB (9%)","torrent":{"xt":"urn:btih:fc66467d639e659235e7413a94fa256231deac3a","amp;dn":"Avengers+Age+of+Ultron%282015%29Mp-4%5BDaScubaDude%5D","amp;tr":["udp%3A%2F%2Ftracker.leechers-paradise.org%3A6969","udp%3A%2F%2Fzer0day.ch%3A1337","udp%3A%2F%2Fopen.demonii.com%3A1337","udp%3A%2F%2Ftracker.coppersurfer.tk%3A6969","udp%3A%2F%2Fexodus.desync.com%3A6969"],"infoHash":"fc66467d639e659235e7413a94fa256231deac3a","infoHashBuffer":{"type":"Buffer","data":[252,102,70,125,99,158,101,146,53,231,65,58,148,250,37,98,49,222,172,58]},"announce":[],"urlList":[]}}